<svg width="100" height="100" viewBox="0 0 100 100" fill="none" xmlns="http://www.w3.org/2000/svg">
<g clip-path="url(#clip0_201_2)">
<rect width="100" height="100" rx="8" fill="white"/>
<rect width="100" height="100" fill="#2D2D2D"/>
<path d="M25.8044 65.6076C30.5709 65.6436 35.245 64.2915 39.2567 61.7166L34.925 54.8041C32.2098 56.5616 29.0383 57.4823 25.8044 57.4512C23.0724 57.4512 20.5486 55.9941 19.1832 53.6281C17.8176 51.2629 17.8176 48.3481 19.1832 45.9829C20.5487 43.6168 23.0726 42.1598 25.8044 42.1598C27.3529 42.133 28.8887 42.4444 30.3046 43.0722C32.4836 44.1406 34.3677 45.7261 35.792 47.6908C38.5012 51.1798 48.1651 63.8659 48.2624 63.9935L54.751 59.05C54.6545 58.9216 44.9673 46.207 42.2353 42.6878V42.6886C39.9952 39.6638 37.0434 37.2382 33.6408 35.6285C31.1757 34.529 28.5026 33.975 25.8033 34.0027C20.1573 34.0027 14.9401 37.0151 12.1176 41.9039C9.29412 46.7937 9.29412 52.8174 12.1176 57.7072C14.9403 62.5962 20.1573 65.6083 25.8033 65.6083L25.8044 65.6076Z" fill="#AFA0FF"/>
<path d="M60.7431 37.8925L65.0747 44.8042V44.805C67.79 43.0466 70.9615 42.1267 74.1954 42.1579C76.9265 42.1579 79.4512 43.6149 80.8166 45.9801C82.1822 48.3461 82.1822 51.2601 80.8166 53.6262C79.4511 55.9914 76.9265 57.4483 74.1954 57.4483C72.6469 57.476 71.1111 57.1647 69.6951 56.5369C67.5171 55.4684 65.6329 53.8822 64.2086 51.9182C61.4994 48.4292 51.8347 35.7431 51.7374 35.6155L45.2487 40.5591C45.3453 40.6875 55.0325 53.402 57.7645 56.9212V56.9204C60.0046 59.9452 62.9573 62.3708 66.3598 63.9806C68.8249 65.0801 71.498 65.634 74.1974 65.6063C79.8433 65.6063 85.0606 62.5939 87.883 57.7052C90.7057 52.8153 90.7057 46.7917 87.883 41.9018C85.0604 37.0129 79.8433 34.0007 74.1974 34.0007C69.43 33.9646 64.7552 35.3167 60.7433 37.8925L60.7431 37.8925Z" fill="#AFA0FF"/>
</g>
<defs>
<clipPath id="clip0_201_2">
<rect width="100" height="100" rx="8" fill="white"/>
</clipPath>
</defs>
</svg>
